# 3ds Max Wavefront OBJ Exporter v0.97b - (c)2007 guruware
# File Created: 18.09.2012 22:25:10

#
# object Plane002
#

v  -23.3379 10.7826 -25.7643
v  -23.3379 -1.7174 -25.7795
v  -10.8379 10.7826 -25.7643
v  -10.8379 -1.7174 -25.7795
v  1.6621 10.7826 -25.7643
v  1.6621 -1.7174 -25.7795
v  14.1621 10.7826 -25.7643
v  14.1621 -1.7174 -25.7795
v  26.6621 10.7826 -25.7643
v  26.6621 -1.7174 -25.7795
v  -23.3379 23.2825 -25.7491
v  -10.8379 23.2825 -25.7491
v  1.6621 23.2825 -25.7491
v  14.1621 23.2825 -25.7491
v  26.6621 23.2825 -25.7491
v  -23.3379 35.7825 -25.7339
v  -10.8379 35.7825 -25.7339
v  1.6621 35.7825 -25.7339
v  14.1621 35.7825 -25.7339
v  26.6621 35.7825 -25.7339
v  -23.3379 48.2825 -25.7187
v  -10.8379 48.2825 -25.7187
v  1.6621 48.2825 -25.7187
v  14.1621 48.2825 -25.7187
v  26.6621 48.2825 -25.7187
# 25 vertices

vn 0.0000 -0.0012 1.0000
# 1 vertex normals

g Plane002
s 1
f 1//1 2//1 3//1 
f 4//1 3//1 2//1 
f 3//1 4//1 5//1 
f 6//1 5//1 4//1 
f 5//1 6//1 7//1 
f 8//1 7//1 6//1 
f 7//1 8//1 9//1 
f 10//1 9//1 8//1 
f 11//1 1//1 12//1 
f 3//1 12//1 1//1 
f 12//1 3//1 13//1 
f 5//1 13//1 3//1 
f 13//1 5//1 14//1 
f 7//1 14//1 5//1 
f 14//1 7//1 15//1 
f 9//1 15//1 7//1 
f 16//1 11//1 17//1 
f 12//1 17//1 11//1 
f 17//1 12//1 18//1 
f 13//1 18//1 12//1 
f 18//1 13//1 19//1 
f 14//1 19//1 13//1 
f 19//1 14//1 20//1 
f 15//1 20//1 14//1 
f 21//1 16//1 22//1 
f 17//1 22//1 16//1 
f 22//1 17//1 23//1 
f 18//1 23//1 17//1 
f 23//1 18//1 24//1 
f 19//1 24//1 18//1 
f 24//1 19//1 25//1 
f 20//1 25//1 19//1 
# 32 faces

